<?xml version="1.0" encoding="iso-8859-1"?>
<!-- Uploaded to: SVG Repo, www.svgrepo.com, Generator: SVG Repo Mixer Tools -->
<svg height="800px" width="800px" version="1.1" id="Layer_1" xmlns="http://www.w3.org/2000/svg" xmlns:xlink="http://www.w3.org/1999/xlink" 
	 viewBox="0 0 512.002 512.002" xml:space="preserve">
<path style="fill:#92C9FF;" d="M404.95,62.495c13.257,13.257,23.952,28.11,32.07,43.948c25.444,49.582,25.692,108.752,0.755,158.525
	c-8.209,16.39-19.151,31.76-32.826,45.435c-68.456,68.456-179.45,68.456-247.907,0c-14.525-14.525-25.968-30.96-34.329-48.505
	c-31.045-65.132-19.602-145.471,34.329-199.402c17.601-17.601,38.009-30.673,59.785-39.22
	C279.763-1.436,354.097,11.641,404.95,62.495z"/>
<g>
	<path style="fill:#87DFD6;" d="M404.95,62.495c13.257,13.257,23.952,28.11,32.07,43.948c-13.934,3.645-29.827,4.767-46.415,2.716
		c-15.652-1.937-30.02-6.464-42.197-12.795c-21.785-11.327-46.97-13.751-70.916-8.325c-19.925,4.515-38.474,1.218-50.586-10.894
		c-12.773-12.773-15.742-32.712-10.079-53.869C279.763-1.436,354.097,11.641,404.95,62.495z"/>
	<path style="fill:#87DFD6;" d="M437.776,264.968c-8.224,16.42-19.191,31.817-32.901,45.51
		c-69.007,68.924-180.092,68.524-248.623-0.873c-14.15-14.329-25.33-30.484-33.538-47.709c24.217-10.707,50.674-22.11,67.409-29.282
		c10.213-4.377,22.07-1.81,29.563,6.394l17.108,18.732c8.179,8.956,21.45,11.101,32.034,5.178l0,0
		c8.315-4.653,18.504-4.409,26.585,0.639l15.253,9.525c8.883,5.548,20.222,5.251,28.803-0.752l40.413-28.277
		c9.243-6.468,21.594-6.268,30.624,0.494L437.776,264.968z"/>
	<path style="fill:#87DFD6;" d="M307.879,196.457c-0.5,3.148-10.608,33.815-10.608,33.815l20.086,5.606l0,0
		c26.495,2.551,51.231-13.567,59.599-38.835l1.179-3.56l-9.762-12.216c-7.424-9.29-20.721-11.355-30.612-4.754L307.879,196.457z"/>
</g>
<polygon style="fill:#4A7DBA;" points="169.698,461.916 169.698,500.872 194.739,500.872 260.406,500.872 392.297,500.872 
	392.297,461.916 "/>
<path d="M294.279,240.993l20.086,5.607c0.63,0.176,1.276,0.296,1.926,0.358c2.247,0.216,4.479,0.323,6.695,0.323
	c29.211-0.001,55.18-18.484,64.537-46.738l1.18-3.56c1.184-3.575,0.481-7.505-1.871-10.448l-9.762-12.216
	c-11.117-13.911-30.672-16.949-45.485-7.063L301.701,187.2c-2.511,1.676-4.23,4.297-4.771,7.26
	c-0.64,2.754-5.678,18.524-10.228,32.327c-0.952,2.889-0.68,6.04,0.751,8.724S291.35,240.175,294.279,240.993z M317.519,203.405
	l26.421-17.634c5.125-3.418,11.892-2.371,15.739,2.445l5.953,7.449c-7.292,18.943-25.909,30.763-46.279,29.215l-7.886-2.202
	C314.276,214.026,316.298,207.587,317.519,203.405z"/>
<path d="M451.466,345.191c-0.009-0.15-0.008-0.3-0.022-0.45c-0.02-0.206-0.057-0.408-0.089-0.614
	c-0.022-0.148-0.037-0.297-0.066-0.444c-0.039-0.2-0.096-0.396-0.145-0.594c-0.038-0.149-0.067-0.301-0.11-0.447
	c-0.057-0.191-0.13-0.377-0.197-0.565c-0.055-0.152-0.099-0.305-0.16-0.454c-0.073-0.18-0.164-0.355-0.247-0.532
	c-0.071-0.152-0.135-0.307-0.213-0.456c-0.086-0.163-0.188-0.318-0.283-0.477c-0.094-0.158-0.178-0.318-0.279-0.472
	c-0.094-0.141-0.204-0.275-0.304-0.413c-0.119-0.163-0.23-0.329-0.359-0.487c-0.097-0.118-0.207-0.228-0.309-0.343
	c-0.147-0.165-0.287-0.335-0.446-0.493c-0.003-0.003-0.008-0.007-0.011-0.01c-0.002-0.002-0.003-0.004-0.006-0.007l-27.816-27.698
	c0.046-0.052,0.092-0.104,0.138-0.155c0.28-0.316,0.554-0.638,0.832-0.956c0.546-0.624,1.095-1.247,1.634-1.879
	c0.24-0.283,0.475-0.571,0.715-0.855c0.566-0.672,1.134-1.345,1.691-2.025c0.216-0.263,0.425-0.532,0.639-0.797
	c0.571-0.704,1.142-1.41,1.702-2.122c0.215-0.274,0.424-0.552,0.638-0.828c0.552-0.711,1.104-1.42,1.645-2.138
	c0.179-0.238,0.352-0.48,0.53-0.718c0.568-0.761,1.134-1.521,1.69-2.291c0.157-0.218,0.309-0.441,0.465-0.659
	c0.569-0.795,1.136-1.59,1.693-2.393c0.117-0.169,0.23-0.343,0.347-0.512c0.588-0.856,1.172-1.712,1.745-2.577
	c0.142-0.215,0.28-0.434,0.422-0.65c0.542-0.825,1.082-1.649,1.611-2.482c0.087-0.138,0.17-0.277,0.257-0.415
	c3.231-5.123,6.214-10.403,8.933-15.831c0.002-0.006,0.004-0.011,0.007-0.016c26.506-52.917,26.203-115.935-0.809-168.573
	c-8.82-17.205-20.294-32.93-34.104-46.739c-0.819-0.819-1.646-1.631-2.478-2.433c-22.308-21.496-49.092-36.64-77.74-44.893
	c-0.21-0.061-0.418-0.125-0.629-0.185c-0.083-0.023-0.167-0.046-0.249-0.069c-30.222-8.547-62.484-9.432-93.736-2.025
	c-1.775,0.421-3.548,0.863-5.317,1.338c-0.088,0.023-0.176,0.045-0.263,0.069c-6.612,1.784-13.171,3.944-19.647,6.487
	c-0.003,0.001-0.006,0.002-0.008,0.003c-20.45,8.029-39.059,19.475-55.471,34.074l-27.784-27.784
	c-0.535-0.534-1.112-1.002-1.718-1.406c-4.323-2.873-10.211-2.405-14.022,1.406c-92.215,92.216-92.215,242.263,0,334.478
	c43.283,43.283,99.306,66.247,156.11,68.899v28.198h-100.17c-6.147,0-11.13,4.984-11.13,11.13v38.956
	c0,6.146,4.983,11.13,11.13,11.13h25.041c6.147,0,11.13-4.984,11.13-11.13s-4.983-11.13-11.13-11.13h-13.915v-16.696h200.339v16.696
	H260.406c-6.147,0-11.13,4.984-11.13,11.13s4.983,11.13,11.13,11.13h131.891c6.147,0,11.13-4.984,11.13-11.13v-38.956
	c0-6.146-4.983-11.13-11.13-11.13h-100.17v-28.198c56.803-2.652,112.825-25.617,156.109-68.899c0.004-0.004,0.009-0.01,0.013-0.014
	c0.001-0.001,0.002-0.002,0.003-0.003c0.052-0.052,0.096-0.11,0.147-0.162c0.213-0.221,0.421-0.445,0.611-0.679
	c0.061-0.076,0.114-0.158,0.173-0.235c0.168-0.218,0.337-0.439,0.487-0.667c0.065-0.099,0.118-0.204,0.179-0.303
	c0.13-0.213,0.264-0.425,0.378-0.643c0.067-0.128,0.12-0.262,0.181-0.393c0.094-0.198,0.194-0.394,0.275-0.594
	c0.062-0.155,0.109-0.312,0.164-0.467c0.065-0.184,0.137-0.365,0.191-0.552c0.051-0.171,0.085-0.347,0.127-0.521
	c0.042-0.174,0.092-0.347,0.126-0.522c0.037-0.189,0.056-0.381,0.082-0.572c0.022-0.163,0.053-0.323,0.069-0.486
	c0.019-0.201,0.021-0.403,0.029-0.605c0.007-0.154,0.021-0.307,0.021-0.461C451.495,345.602,451.478,345.396,451.466,345.191z
	 M160.774,298.231c-0.17-0.183-0.343-0.363-0.512-0.545c-1.082-1.173-2.143-2.361-3.188-3.56c-0.231-0.265-0.46-0.533-0.689-0.799
	c-1.02-1.185-2.026-2.382-3.01-3.594c-0.04-0.049-0.081-0.098-0.121-0.147c-1.022-1.263-2.019-2.543-3.002-3.833
	c-0.206-0.269-0.41-0.539-0.614-0.811c-0.976-1.298-1.939-2.607-2.876-3.932c-0.03-0.042-0.059-0.085-0.088-0.127
	c-0.909-1.29-1.794-2.596-2.666-3.911c-0.178-0.269-0.357-0.538-0.534-0.809c-0.878-1.343-1.741-2.699-2.579-4.067
	c-0.105-0.171-0.206-0.345-0.311-0.516c-0.761-1.253-1.503-2.516-2.23-3.79c-0.095-0.164-0.189-0.328-0.283-0.494
	c20.577-9.031,41.528-18.061,56.436-24.449c5.85-2.505,12.666-1.031,16.96,3.671l17.108,18.731
	c11.727,12.838,30.514,15.876,45.688,7.384c4.774-2.669,10.618-2.529,15.255,0.366l15.253,9.526
	c12.691,7.928,28.817,7.506,41.08-1.074l40.413-28.277c5.317-3.72,12.379-3.605,17.572,0.284l19.584,14.667
	c-0.414,0.721-0.826,1.445-1.251,2.159c-0.351,0.589-0.696,1.182-1.054,1.766c-0.856,1.399-1.736,2.781-2.634,4.154
	c-0.211,0.323-0.413,0.653-0.627,0.975c-1.121,1.687-2.276,3.352-3.46,4.997c-0.313,0.435-0.64,0.859-0.957,1.291
	c-0.887,1.209-1.786,2.409-2.707,3.594c-0.435,0.56-0.88,1.112-1.323,1.666c-0.845,1.058-1.703,2.109-2.575,3.148
	c-0.467,0.557-0.937,1.112-1.412,1.663c-0.925,1.072-1.868,2.13-2.821,3.18c-0.427,0.47-0.848,0.945-1.281,1.411
	c-1.339,1.44-2.7,2.863-4.095,4.259c-0.055,0.055-0.107,0.112-0.161,0.166c-0.935,0.935-1.88,1.855-2.834,2.765
	c-0.028,0.027-0.056,0.056-0.085,0.081c-30.649,29.192-70.665,45.215-113.145,45.215c-39.58,0-77.019-13.916-106.737-39.427
	c-0.162-0.14-0.327-0.277-0.49-0.418c-0.755-0.653-1.501-1.32-2.246-1.988c-0.305-0.273-0.612-0.543-0.915-0.819
	c-0.627-0.571-1.244-1.152-1.863-1.733c-0.402-0.377-0.806-0.752-1.205-1.135c-0.544-0.521-1.081-1.051-1.619-1.58
	c-0.463-0.455-0.928-0.908-1.387-1.37c-0.28-0.283-0.557-0.569-0.835-0.853C162.71,300.282,161.734,299.263,160.774,298.231z
	 M164.913,70.366c11.387-11.387,24.138-20.889,38.052-28.401c-0.244,17.152,5.257,32.233,16.073,43.051
	c14.342,14.342,36.545,19.402,60.915,13.878c22.095-5.006,44.584-2.397,63.322,7.346c13.669,7.108,29.563,11.937,45.966,13.967
	c5.907,0.729,11.822,1.092,17.678,1.092c8.145,0,16.164-0.716,23.868-2.108c18.236,40.643,19.102,87.298,2.54,128.542l-16.15-12.094
	c-12.909-9.669-30.463-9.952-43.676-0.706l-40.413,28.277c-4.933,3.453-11.42,3.622-16.527,0.433l-15.253-9.526
	c-11.527-7.2-26.055-7.548-37.916-0.912c-6.103,3.419-13.663,2.196-18.381-2.971l-17.108-18.731
	c-10.674-11.688-27.621-15.353-42.166-9.118c-15.11,6.475-36.411,15.655-57.275,24.818
	C104.389,186.723,118.396,116.884,164.913,70.366z M226.989,31.391c1.606-0.559,3.217-1.101,4.832-1.607
	c0.047-0.016,0.093-0.03,0.14-0.046c1.648-0.515,3.303-0.994,4.96-1.456c0.423-0.117,0.846-0.234,1.269-0.348
	c1.659-0.447,3.322-0.879,4.988-1.273c0.077-0.019,0.154-0.033,0.229-0.052c1.612-0.378,3.225-0.725,4.843-1.053
	c0.421-0.086,0.84-0.17,1.261-0.253c1.673-0.326,3.347-0.634,5.023-0.908c0.131-0.021,0.264-0.038,0.395-0.06
	c1.575-0.253,3.151-0.477,4.728-0.682c0.418-0.056,0.837-0.11,1.255-0.161c1.677-0.207,3.355-0.394,5.034-0.548
	c0.181-0.017,0.364-0.028,0.545-0.043c1.538-0.136,3.076-0.247,4.614-0.339c0.415-0.023,0.83-0.05,1.244-0.071
	c1.675-0.087,3.35-0.156,5.024-0.191c0.224-0.006,0.447-0.004,0.671-0.008c1.479-0.026,2.958-0.028,4.436-0.016
	c0.466,0.006,0.933,0.009,1.399,0.018c1.693,0.03,3.386,0.078,5.075,0.161c0.046,0.002,0.091,0.006,0.137,0.009
	c1.652,0.081,3.3,0.197,4.947,0.328c0.465,0.038,0.929,0.078,1.393,0.119c1.416,0.125,2.83,0.268,4.242,0.431
	c0.298,0.035,0.598,0.063,0.896,0.099c1.664,0.2,3.325,0.43,4.981,0.68c0.422,0.065,0.843,0.135,1.264,0.203
	c1.333,0.213,2.663,0.441,3.991,0.687c0.413,0.076,0.826,0.149,1.238,0.228c1.643,0.317,3.282,0.657,4.915,1.023
	c0.313,0.07,0.624,0.148,0.936,0.22c1.367,0.315,2.73,0.649,4.089,0.999c0.451,0.116,0.9,0.232,1.35,0.352
	c1.632,0.435,3.259,0.887,4.876,1.372c0.032,0.01,0.065,0.021,0.097,0.03c1.59,0.479,3.171,0.989,4.748,1.516
	c0.443,0.148,0.884,0.301,1.326,0.451c1.342,0.462,2.68,0.94,4.011,1.437c0.284,0.107,0.57,0.207,0.854,0.314
	c1.57,0.595,3.131,1.22,4.684,1.864c0.394,0.162,0.786,0.334,1.179,0.5c1.249,0.531,2.492,1.075,3.729,1.637
	c0.384,0.174,0.769,0.345,1.152,0.522c1.529,0.709,3.05,1.438,4.56,2.195c0.28,0.14,0.559,0.288,0.838,0.431
	c1.269,0.646,2.529,1.308,3.782,1.987c0.41,0.221,0.82,0.443,1.228,0.67c1.496,0.826,2.984,1.668,4.456,2.543
	c0.012,0.008,0.026,0.016,0.038,0.023c1.461,0.869,2.906,1.771,4.344,2.687c0.393,0.252,0.785,0.505,1.176,0.76
	c1.212,0.787,2.415,1.59,3.608,2.412c0.252,0.174,0.506,0.342,0.758,0.516c1.403,0.978,2.793,1.982,4.17,3.006
	c0.342,0.255,0.679,0.514,1.018,0.77c1.11,0.84,2.21,1.694,3.302,2.564c0.333,0.266,0.668,0.529,0.999,0.797
	c1.341,1.086,2.67,2.193,3.981,3.325c0.235,0.204,0.465,0.413,0.7,0.618c1.104,0.964,2.197,1.947,3.28,2.945
	c0.351,0.323,0.701,0.647,1.05,0.973c1.282,1.202,2.553,2.42,3.802,3.668l0,0c1.353,1.353,2.671,2.735,3.973,4.129
	c0.362,0.388,0.72,0.778,1.077,1.17c1.061,1.158,2.105,2.329,3.131,3.515c0.244,0.282,0.494,0.559,0.736,0.843
	c1.219,1.428,2.41,2.877,3.576,4.343c0.299,0.376,0.59,0.757,0.886,1.135c0.923,1.181,1.83,2.373,2.719,3.577
	c0.294,0.396,0.59,0.791,0.879,1.191c1.101,1.518,2.178,3.051,3.224,4.604c0.177,0.264,0.346,0.532,0.522,0.796
	c0.591,0.888,1.158,1.791,1.731,2.69c-8.908,0.981-18.233,0.907-27.564-0.245c-13.799-1.707-27.087-5.727-38.428-11.624
	c-15.702-8.165-33.42-12.34-51.604-12.34c-8.917,0-17.947,1.004-26.906,3.034c-17.005,3.853-31.302,1.045-40.255-7.908
	c-8.43-8.43-11.408-21.952-8.449-37.652C226.55,31.546,226.77,31.468,226.989,31.391z M121.831,43.023l19.708,19.708
	c-49.372,55.656-61.16,136.203-28.877,203.945c0.001,0.004,0.002,0.008,0.004,0.011c0.565,1.186,1.144,2.367,1.734,3.542
	c0.145,0.287,0.297,0.572,0.443,0.858c0.446,0.876,0.894,1.751,1.353,2.62c0.253,0.479,0.516,0.951,0.772,1.425
	c0.364,0.672,0.725,1.348,1.096,2.017c0.306,0.55,0.623,1.093,0.936,1.642c0.334,0.583,0.662,1.171,1.002,1.751
	c0.342,0.584,0.695,1.162,1.043,1.742c0.323,0.539,0.641,1.08,0.969,1.614c0.366,0.598,0.743,1.188,1.116,1.781
	c0.322,0.51,0.638,1.023,0.964,1.529c0.385,0.6,0.781,1.192,1.174,1.786c0.326,0.495,0.649,0.993,0.981,1.485
	c0.4,0.592,0.809,1.18,1.215,1.769c0.335,0.485,0.667,0.973,1.007,1.456c0.412,0.584,0.834,1.163,1.253,1.743
	c0.346,0.481,0.69,0.962,1.042,1.439c0.421,0.57,0.85,1.135,1.277,1.7c0.362,0.48,0.721,0.961,1.087,1.437
	c0.427,0.555,0.864,1.105,1.298,1.656c0.377,0.479,0.752,0.958,1.135,1.435c0.433,0.538,0.875,1.071,1.313,1.605
	c0.396,0.481,0.789,0.963,1.19,1.44c0.435,0.52,0.878,1.033,1.32,1.547c0.416,0.485,0.831,0.972,1.252,1.452
	c0.44,0.502,0.886,0.998,1.331,1.496c0.434,0.485,0.866,0.971,1.306,1.451c0.445,0.487,0.898,0.969,1.349,1.454
	c0.45,0.483,0.899,0.965,1.355,1.444c0.451,0.473,0.907,0.94,1.363,1.409c0.329,0.339,0.653,0.682,0.986,1.02
	c0.125,0.126,0.252,0.247,0.376,0.372c0.156,0.158,0.307,0.317,0.464,0.474c0.406,0.406,0.822,0.8,1.232,1.202
	c0.572,0.562,1.142,1.125,1.72,1.678c0.494,0.474,0.995,0.939,1.494,1.407c0.659,0.619,1.318,1.237,1.984,1.844
	c0.393,0.357,0.791,0.709,1.186,1.064c0.795,0.712,1.59,1.421,2.395,2.119c0.244,0.21,0.491,0.417,0.737,0.628
	c0.975,0.836,1.954,1.664,2.944,2.48c0.05,0.041,0.101,0.081,0.152,0.124c33.109,27.204,74.098,42.076,117.349,42.224
	c0.219,0.001,0.435,0.002,0.654,0.002c45.94,0,89.406-16.636,123.632-47.083l19.753,19.67
	c-39.413,35.592-89.912,55.07-143.407,55.07c-57.229,0-111.032-22.285-151.499-62.753C48.602,257.051,46.047,127.027,121.831,43.023
	z"/>
<path d="M237.846,496.61c-0.278-0.669-0.623-1.314-1.024-1.914c-0.401-0.613-0.868-1.181-1.38-1.693
	c-0.512-0.512-1.08-0.979-1.692-1.391c-0.601-0.401-1.247-0.735-1.925-1.013c-0.668-0.278-1.369-0.501-2.081-0.633
	c-1.436-0.29-2.916-0.29-4.352,0c-0.701,0.132-1.402,0.355-2.081,0.633c-0.668,0.278-1.313,0.624-1.914,1.013
	c-0.612,0.412-1.18,0.879-1.692,1.391c-0.512,0.512-0.979,1.08-1.38,1.693c-0.401,0.6-0.746,1.245-1.024,1.914
	c-0.278,0.678-0.501,1.38-0.634,2.081c-0.145,0.722-0.223,1.458-0.223,2.181c0,0.722,0.078,1.458,0.223,2.17
	c0.134,0.712,0.356,1.413,0.634,2.08c0.278,0.679,0.623,1.324,1.024,1.925c0.401,0.612,0.868,1.18,1.38,1.692
	c0.512,0.512,1.08,0.981,1.692,1.38c0.601,0.401,1.247,0.746,1.914,1.024c0.679,0.278,1.38,0.49,2.081,0.634
	c0.723,0.145,1.458,0.223,2.181,0.223s1.458-0.078,2.17-0.223c0.712-0.145,1.413-0.356,2.081-0.634
	c0.679-0.278,1.324-0.623,1.925-1.024c0.612-0.4,1.18-0.868,1.692-1.38c0.512-0.512,0.979-1.08,1.38-1.692
	c0.401-0.601,0.746-1.247,1.024-1.925c0.278-0.668,0.49-1.368,0.634-2.08c0.145-0.713,0.223-1.448,0.223-2.17
	c0-0.723-0.078-1.459-0.223-2.181C238.336,497.99,238.125,497.288,237.846,496.61z"/>
</svg>